<?xml version="1.0" encoding="utf-8"?>
<!-- Generator: Adobe Illustrator 27.4.0, SVG Export Plug-In . SVG Version: 6.00 Build 0)  -->
<svg version="1.1" id="레이어_1" xmlns="http://www.w3.org/2000/svg" xmlns:xlink="http://www.w3.org/1999/xlink" x="0px"
	 y="0px" viewBox="0 0 205.4 40.6" style="enable-background:new 0 0 205.4 40.6;" xml:space="preserve">
<style type="text/css">
	.st0{fill:#68F37F;}
</style>
<g id="Layer_2">
	<g id="Layer_1-2">
		<path class="st0" d="M151.1,9.3l1.6-2.9l1.6-2.9h51V0.1L21.1,0l-1.5,3.5l-1.6,2.7l-1.6,2.7l-2.3,4l-2.3,4h3.9l2.1-3.6l2.1-3.6
			l1.8-3.2l1.8-3.1h28.9l-1.6,2.7l-1.6,2.7l-2.3,4l-2.3,4h3.9l2.1-3.6l2.1-3.6l1.8-3.2l1.8-3.1h28.9l-1.6,2.7L82,8.9l-2.3,4l-2.3,4
			h3.9l2.1-3.6l2.1-3.6l1.8-3.2l1.8-3.1H118l-1.6,2.7l-1.6,2.7l-2.3,4l-2.3,4h3.9l2.1-3.6l2.1-3.6l1.8-3.2l1.8-3.1h28.6l-2.6,4.6
			l-2.6,4.6l-5.2,9.3h32.1l-2.2,3.8l-2.2,3.8l-4.4,7.6h-61l1.6-2.7l1.6-2.7l2.3-4l2.3-4h-3.9l-2.1,3.6l-2.1,3.6l-1.8,3.1l-1.8,3.2
			H69.6l1.6-2.7l1.6-2.7l2.3-4l2.3-4h-3.9l-2.1,3.6l-2.1,3.6L67.5,34l-1.8,3.2H36.8l1.6-2.7l1.6-2.7l2.3-4l2.3-4h-3.9l-2.1,3.6
			l-2.1,3.6L34.7,34l-1.8,3.2H4l1.6-2.7l1.6-2.7l2.3-4l2.3-4h-4l-2.1,3.6l-2.1,3.6L1.9,34L0,37.2c0.1,1,0.1,2.1,0,3.1
			c0,0.1,0,0.2,0.1,0.3c0,0,0,0,0,0h165.2l3.2-5.5l3.2-5.5l3.2-5.5l3.2-5.5h-32.2l2.6-4.6L151.1,9.3z"/>
	</g>
</g>
</svg>
