<?xml version="1.0" encoding="utf-8"?>
<!-- Generator: Adobe Illustrator 27.4.0, SVG Export Plug-In . SVG Version: 6.00 Build 0)  -->
<svg version="1.1" id="Layer_1" xmlns="http://www.w3.org/2000/svg" xmlns:xlink="http://www.w3.org/1999/xlink" x="0px" y="0px"
	 viewBox="0 0 490.5 68.8" style="enable-background:new 0 0 490.5 68.8;" xml:space="preserve">
<style type="text/css">
	.st0{fill:none;}
	.st1{fill:#68F37F;}
</style>
<polygon class="st0" points="229.6,42.5 225,34.5 219.9,25.7 214.8,16.8 185.9,16.8 187.5,19.5 189.1,22.2 191.4,26.2 193.7,30.2 
	189.8,30.2 187.7,26.6 185.6,23 183.8,19.9 182,16.8 153.1,16.8 154.7,19.5 156.3,22.2 158.6,26.2 160.9,30.2 157,30.2 154.9,26.6 
	152.8,23 151,19.8 149.1,16.7 120.2,16.7 121.8,19.4 123.4,22.1 125.7,26.1 128,30.1 124.1,30.1 122,26.5 120,23 118.1,19.8 
	116.3,16.7 87.4,16.7 89,19.4 90.6,22.2 92.9,26.2 95.2,30.2 91.3,30.2 89.2,26.6 87.1,23 85.3,19.9 83.5,16.8 54.9,16.8 57.5,21.4 
	60.1,26 62.7,30.6 65.3,35.2 33.2,35.2 35.4,39 37.5,42.8 39.7,46.6 42,50.4 103,50.4 101.4,47.7 99.8,45 97.5,41 95.2,37 99.1,37 
	101.2,40.3 103.3,43.9 105.1,47.1 106.9,50.2 135.8,50.2 134.2,47.5 132.6,44.8 130.3,40.8 128,36.8 132.2,36.8 134.3,40.3 
	136.4,43.9 138.2,47.1 140,50.2 168.8,50.2 167.2,47.5 165.7,44.8 163.4,40.8 161.1,36.8 165,36.8 167.1,40.3 169.2,43.9 171,47.1 
	172.8,50.2 201.7,50.2 200.1,47.5 198.5,44.8 196.2,40.8 193.8,36.8 197.7,36.8 199.8,40.3 201.9,43.9 203.7,47.1 205.5,50.2 
	215.9,50.2 215.9,50.5 234.2,50.5 "/>
<rect x="215.7" y="50.5" class="st1" width="0.2" height="3.1"/>
<polygon class="st1" points="436.2,22.6 437.8,19.7 439.4,16.8 490.4,16.8 490.4,13.4 464.5,13.3 277.3,13.3 281.1,6.7 285,0 280,0 
	245.2,61.3 210.5,0 205.5,0 209.3,6.6 213.1,13.2 0,13.2 0,16.6 51,16.6 52.6,19.5 54.2,22.4 56.8,27 59.4,31.6 27.3,31.6 
	30.5,37.1 33.7,42.6 36.9,48.1 40.1,53.6 215.7,53.6 215.7,50.5 215.9,50.5 215.9,50.2 205.5,50.2 203.7,47.1 201.9,43.9 
	199.8,40.3 197.7,36.8 193.8,36.8 196.2,40.8 198.5,44.8 200.1,47.5 201.7,50.2 172.8,50.2 171,47.1 169.2,43.9 167.1,40.3 
	165,36.8 161.1,36.8 163.4,40.8 165.7,44.8 167.2,47.5 168.8,50.2 140,50.2 138.2,47.1 136.4,43.9 134.3,40.3 132.2,36.8 128,36.8 
	130.3,40.8 132.6,44.8 134.2,47.5 135.8,50.2 106.9,50.2 105.1,47.1 103.3,43.9 101.2,40.3 99.1,37 95.2,37 97.5,41 99.8,45 
	101.4,47.7 103,50.4 42,50.4 39.7,46.6 37.5,42.8 35.4,39 33.2,35.2 65.3,35.2 62.7,30.6 60.1,26 57.5,21.4 54.9,16.8 83.5,16.8 
	85.3,19.9 87.1,23 89.2,26.6 91.3,30.2 95.2,30.2 92.9,26.2 90.6,22.2 89,19.4 87.4,16.7 116.3,16.7 118.1,19.8 120,23 122,26.5 
	124.1,30.1 128,30.1 125.7,26.1 123.4,22.1 121.8,19.4 120.2,16.7 149.1,16.7 151,19.8 152.8,23 154.9,26.6 157,30.2 160.9,30.2 
	158.6,26.2 156.3,22.2 154.7,19.5 153.1,16.8 182,16.8 183.8,19.9 185.6,23 187.7,26.6 189.8,30.2 193.7,30.2 191.4,26.2 
	189.1,22.2 187.5,19.5 185.9,16.8 214.8,16.8 219.9,25.7 225,34.5 229.6,42.5 234.2,50.5 215.9,50.5 215.9,53.6 215.7,53.6 
	215.7,53.9 236.5,53.9 240.8,61.4 245.1,68.9 249.4,61.4 253.7,53.9 274.5,53.9 274.5,50.5 256,50.5 260.6,42.5 265.2,34.5 
	270.3,25.6 275.4,16.7 304.3,16.7 302.7,19.4 301.1,22.1 298.8,26.1 296.5,30.1 300.4,30.1 302.5,26.5 304.6,23 306.4,19.9 
	308.2,16.8 337.1,16.8 335.5,19.5 333.9,22.2 331.6,26.2 329.3,30.2 333.2,30.2 335.3,26.6 337.4,23 339.2,19.9 341,16.8 
	369.9,16.8 368.3,19.5 366.7,22.2 364.4,26.2 362.1,30.2 366,30.2 368.1,26.6 370.2,23 372,19.9 373.8,16.8 402.7,16.8 401.1,19.5 
	399.5,22.2 397.2,26.2 394.9,30.2 398.8,30.2 400.9,26.6 403,23 404.8,19.9 406.6,16.7 435.2,16.7 432.6,21.3 430,26 427.4,30.6 
	424.8,35.2 456.9,35.2 454.7,38.9 452.6,42.7 450.4,46.5 448.2,50.3 387.2,50.3 388.8,47.6 390.3,44.9 392.6,40.9 394.9,36.9 
	391,36.9 388.9,40.5 386.8,44.1 385,47.3 383.2,50.4 354.3,50.4 355.9,47.7 357.5,45 359.8,41 362.1,37 358.2,37 356.1,40.6 
	354,44.2 352.2,47.4 350.4,50.5 321.5,50.5 323.1,47.8 325,45 327.3,41 329.6,37 325.7,37 323.6,40.6 321.6,44.1 319.8,47.3 
	318,50.4 289.1,50.4 290.7,47.7 292.3,45 294.6,41 296.9,37 293,37 290.9,40.6 288.8,44.2 287,47.3 285.2,50.4 274.8,50.4 
	274.8,53.8 450.6,53.8 453.8,48.3 457,42.8 460.2,37.3 463.4,31.8 431,31.8 433.6,27.2 "/>
<polygon class="st1" points="273.9,0 216.6,0 245.2,50.5 "/>
</svg>
